<?xml version="1.0" encoding="UTF-8"?><svg id="Layer_1" xmlns="http://www.w3.org/2000/svg" width="179.7mm" height="19.14mm" viewBox="0 0 509.38 54.25"><defs><style>.cls-1,.cls-2{fill:#281f1f;}.cls-2{fill-rule:evenodd;}</style></defs><path class="cls-2" d="M383.53,53.66c14.71,0,26.64-11.93,26.64-26.64S398.24.38,383.53.38s-26.64,11.93-26.64,26.64,11.93,26.64,26.64,26.64ZM381.51,39.13l5.62,9.37c6.03-1.01,11.23-4.49,14.5-9.37h-20.12ZM371.12,31.23l10.49,17.49c-6.61-.58-12.38-4.11-15.97-9.27l5.48-8.22ZM372.95,19.76h-9.96c-.8,2.27-1.24,4.72-1.24,7.26s.47,5.18,1.34,7.53l9.86-14.79ZM404.06,34.29h-10.09l9.75-15.43c1.02,2.52,1.58,5.28,1.58,8.17,0,2.55-.44,4.99-1.24,7.26ZM385.55,14.91h-20.12c3.27-4.88,8.47-8.37,14.5-9.37l5.62,9.37ZM385.44,5.33l10.28,17.13,5.31-8.4c-3.61-4.86-9.2-8.17-15.58-8.73ZM374.27,27.02l4.54-7.26h9.42l4.54,7.26-4.54,7.26h-9.42l-4.54-7.26Z"/><path class="cls-1" d="M40.36,38.36c0,2.04-.47,4.05-1.42,6.05s-2.28,3.68-3.99,5.06c-1.88,1.5-4.06,2.67-6.56,3.52s-5.5,1.27-9.02,1.27c-3.77,0-7.17-.35-10.18-1.05-3.01-.7-6.08-1.75-9.19-3.13v-8.72h.49c2.65,2.2,5.71,3.9,9.18,5.1,3.47,1.2,6.73,1.79,9.77,1.79,4.31,0,7.67-.81,10.07-2.43,2.4-1.62,3.6-3.77,3.6-6.47,0-2.32-.57-4.03-1.71-5.13-1.14-1.1-2.87-1.96-5.19-2.57-1.76-.47-3.66-.86-5.71-1.16-2.05-.3-4.22-.69-6.52-1.16-4.64-.98-8.08-2.67-10.32-5.04C1.44,21.9.32,18.8.32,14.98c0-4.38,1.85-7.97,5.55-10.78C9.57,1.4,14.27,0,19.97,0c3.68,0,7.05.35,10.12,1.05,3.07.7,5.79,1.57,8.16,2.6v8.23h-.49c-1.99-1.69-4.61-3.09-7.86-4.2-3.25-1.11-6.57-1.67-9.97-1.67-3.73,0-6.72.77-8.98,2.32-2.26,1.55-3.39,3.54-3.39,5.98,0,2.18.56,3.89,1.69,5.13s3.11,2.19,5.94,2.85c1.5.33,3.63.73,6.4,1.2,2.77.47,5.11.95,7.03,1.44,3.89,1.03,6.82,2.59,8.79,4.68s2.95,5,2.95,8.75Z"/><path class="cls-1" d="M88.88,7.14h-18.7v46.16h-6.96V7.14h-18.7V.95h44.37v6.19Z"/><path class="cls-1" d="M130.39,53.3h-34.49V.95h34.49v6.19h-27.53v14.34h27.53v6.19h-27.53v19.44h27.53v6.19Z"/><path class="cls-1" d="M181.37,53.3h-8.61l-24.82-46.83v46.83h-6.5V.95h10.79l22.64,42.75V.95h6.5v52.35Z"/><path class="cls-1" d="M258.65,38.36c0,2.04-.47,4.05-1.42,6.05s-2.28,3.68-3.99,5.06c-1.88,1.5-4.06,2.67-6.56,3.52s-5.5,1.27-9.02,1.27c-3.77,0-7.17-.35-10.18-1.05s-6.08-1.75-9.19-3.13v-8.72h.49c2.65,2.2,5.71,3.9,9.18,5.1,3.47,1.2,6.73,1.79,9.77,1.79,4.31,0,7.67-.81,10.07-2.43s3.6-3.77,3.6-6.47c0-2.32-.57-4.03-1.71-5.13s-2.87-1.96-5.19-2.57c-1.76-.47-3.66-.86-5.71-1.16s-4.22-.69-6.52-1.16c-4.64-.98-8.08-2.67-10.32-5.04s-3.36-5.48-3.36-9.3c0-4.38,1.85-7.97,5.55-10.78s8.4-4.2,14.1-4.2c3.68,0,7.05.35,10.12,1.05s5.79,1.57,8.16,2.6v8.23h-.49c-1.99-1.69-4.61-3.09-7.86-4.2s-6.57-1.67-9.97-1.67c-3.73,0-6.72.77-8.98,2.32-2.26,1.55-3.39,3.54-3.39,5.98,0,2.18.56,3.89,1.69,5.13s3.11,2.19,5.94,2.85c1.5.33,3.63.73,6.4,1.2s5.11.95,7.03,1.44c3.89,1.03,6.82,2.59,8.79,4.68s2.95,5,2.95,8.75Z"/><path class="cls-1" d="M288.28,53.3h-20.67v-5.34h6.86V6.29h-6.86V.95h20.67v5.34h-6.86v41.66h6.86v5.34Z"/><path class="cls-1" d="M346.75,53.3h-6.96V8.19l-14.55,30.69h-4.15l-14.45-30.69v45.11h-6.5V.95h9.49l13.96,29.14,13.5-29.14h9.67v52.35Z"/><path class="cls-1" d="M457.42,53.3h-8.61l-24.82-46.83v46.83h-6.5V.95h10.79l22.64,42.75V.95h6.5v52.35Z"/><path class="cls-1" d="M509.38,38.36c0,2.04-.47,4.05-1.42,6.05s-2.28,3.68-3.99,5.06c-1.88,1.5-4.06,2.67-6.56,3.52s-5.5,1.27-9.02,1.27c-3.77,0-7.17-.35-10.18-1.05s-6.08-1.75-9.19-3.13v-8.72h.49c2.65,2.2,5.71,3.9,9.18,5.1s6.73,1.79,9.77,1.79c4.31,0,7.67-.81,10.07-2.43s3.6-3.77,3.6-6.47c0-2.32-.57-4.03-1.71-5.13s-2.87-1.96-5.19-2.57c-1.76-.47-3.66-.86-5.71-1.16s-4.22-.69-6.52-1.16c-4.64-.98-8.08-2.67-10.32-5.04s-3.36-5.48-3.36-9.3c0-4.38,1.85-7.97,5.55-10.78s8.4-4.2,14.1-4.2c3.68,0,7.05.35,10.12,1.05s5.79,1.57,8.16,2.6v8.23h-.49c-1.99-1.69-4.61-3.09-7.86-4.2s-6.57-1.67-9.97-1.67c-3.73,0-6.72.77-8.98,2.32s-3.39,3.54-3.39,5.98c0,2.18.56,3.89,1.69,5.13s3.11,2.19,5.94,2.85c1.5.33,3.63.73,6.4,1.2s5.11.95,7.03,1.44c3.89,1.03,6.82,2.59,8.79,4.68s2.95,5,2.95,8.75Z"/></svg>